<svg xmlns="http://www.w3.org/2000/svg" viewBox="0 0 64 64"><path d="M22 20 L42 20 L39.5 49 L24.5 49 Z" fill="#f6f3ec"/>
    <path d="M32 20 L42 20 L39.5 49 L32 49 Z" fill="#e9e4d8"/>
    <path d="M22.6 27 L41.4 27 L40.2 41 L23.8 41 Z" fill="#60a5fa"/>
    <path d="M22.6 27 L41.4 27 L41 32 L23 32 Z" fill="#3b82f6"/>
    <path d="M28 34.5 h8 M29 37.5 h6" stroke="#ffffff" stroke-width="1.6" stroke-linecap="round"/>
    <ellipse cx="32" cy="20" rx="10" ry="2.6" fill="#ffffff"/>
    <circle cx="25.5" cy="18.5" r="2.4" fill="#ffffff"/>
    <circle cx="30.5" cy="17" r="3" fill="#ffffff"/>
    <circle cx="36" cy="18" r="2.5" fill="#ffffff"/>
    <circle cx="40" cy="19.5" r="1.8" fill="#ffffff"/>
    <circle cx="29" cy="16.2" r="1" fill="#eef2f6"/>
    <circle cx="35" cy="16.8" r="0.9" fill="#eef2f6"/></svg>
