<svg xmlns="http://www.w3.org/2000/svg" viewBox="0 0 64 64"><ellipse cx="32" cy="52" rx="14" ry="3.8" fill="#eaddca"/>
  <ellipse cx="32" cy="51" rx="14" ry="3.8" fill="#f6ecdd"/>
  <path d="M21 10 C21 24 26.5 27 26.5 33 C26.5 39 24 42 24 49 L40 49 C40 42 37.5 39 37.5 33 C37.5 27 43 24 43 10 Z" fill="#dce8f5"/>
  <ellipse cx="32" cy="10.5" rx="11" ry="2.2" fill="#eef4fb"/>
  <path d="M23.8 20 C24.4 26 28.5 28.5 28.5 33 C28.5 38.5 26.3 41.5 26.3 47 L37.7 47 C37.7 41.5 35.5 38.5 35.5 33 C35.5 28.5 39.6 26 40.2 20 Z" fill="#c2410c"/>
  <path d="M23.8 20 C24.4 26 28.5 28.5 28.5 33 L35.5 33 C35.5 28.5 39.6 26 40.2 20 Z" fill="#dd4f10"/>
  <ellipse cx="32" cy="20" rx="8.2" ry="1.9" fill="#f97316"/>
  <path d="M23.2 13 C23.4 21 26.6 24 26.8 28.5 L25 29 C24.6 24.5 21.9 21 21.8 13 Z" fill="#ffffff" opacity="0.65"/></svg>
