<svg xmlns="http://www.w3.org/2000/svg" viewBox="0 0 64 64"><rect x="28.5" y="8" width="7" height="4.5" rx="1.5" fill="#ef4444"/>
    <path d="M28.5 12.5 h7 v6 c3 2 4.5 4 4.5 8 v19.5 a4 4 0 0 1 -4 4 h-8 a4 4 0 0 1 -4 -4 v-19.5 c0 -4 1.5 -6 4.5 -8 Z" fill="#7dd3fc"/>
    <path d="M32 12.5 h3.5 v6 c3 2 4.5 4 4.5 8 v19.5 a4 4 0 0 1 -4 4 h-4 Z" fill="#5fc4f5"/>
    <rect x="25" y="29" width="14" height="10" rx="1.5" fill="#ffffff"/>
    <rect x="27" y="31.5" width="10" height="2.2" rx="1.1" fill="#ef4444"/>
    <circle cx="29" cy="20" r="1" fill="#ffffff" opacity="0.8"/>
    <circle cx="33" cy="16.5" r="0.8" fill="#ffffff" opacity="0.8"/>
    <circle cx="30.5" cy="24" r="0.8" fill="#ffffff" opacity="0.7"/></svg>
