<svg xmlns="http://www.w3.org/2000/svg" viewBox="0 0 64 64"><rect x="28.5" y="8" width="7" height="4" rx="1.5" fill="#d1d5db"/>
    <path d="M28.5 12 h7 v6 c3 2 4.5 4 4.5 8 v20 a4 4 0 0 1 -4 4 h-8 a4 4 0 0 1 -4 -4 v-20 c0 -4 1.5 -6 4.5 -8 Z" fill="#16a34a"/>
    <path d="M32 12 h3.5 v6 c3 2 4.5 4 4.5 8 v20 a4 4 0 0 1 -4 4 h-4 Z" fill="#12813b"/>
    <rect x="25" y="29" width="14" height="10" rx="1.5" fill="#fb923c"/>
    <circle cx="32" cy="34" r="3.6" fill="#fdba74"/>
    <circle cx="32" cy="34" r="1.6" fill="#f97316"/>
    <rect x="26.5" y="14" width="2.5" height="10" rx="1.2" fill="#4ade80" opacity="0.5"/></svg>
