<svg xmlns="http://www.w3.org/2000/svg" viewBox="0 0 64 64"><rect x="28" y="9" width="8" height="6" rx="2" fill="#2563eb"/>
    <path d="M27 15 h10 l2 6 v25 a4 4 0 0 1 -4 4 h-6 a4 4 0 0 1 -4 -4 v-25 Z" fill="#dbeafe"/>
    <path d="M32 15 h5 l2 6 v25 a4 4 0 0 1 -4 4 h-3 Z" fill="#c4dbf8" opacity="0.8"/>
    <rect x="25" y="28" width="14" height="9" rx="1.5" fill="#ffffff"/>
    <rect x="26.5" y="30.5" width="8" height="1.8" rx="0.9" fill="#3b82f6"/>
    <rect x="26.5" y="33.4" width="6" height="1.4" rx="0.7" fill="#93c5fd"/>
    <path d="M25 24 h14 M25 40 h14" stroke="#b6cff2" stroke-width="1.6"/></svg>
