<svg xmlns="http://www.w3.org/2000/svg" viewBox="0 0 64 64"><ellipse cx="32" cy="48" rx="17" ry="5" fill="#eaddca"/>
    <ellipse cx="32" cy="47" rx="17" ry="5" fill="#f6ecdd"/>
    <path d="M45 27 a6.5 6.5 0 0 1 0 13" fill="none" stroke="#ddd5c8" stroke-width="3.5"/>
    <path d="M19 24 L45 24 C45 34 42 44 32 44 C22 44 19 34 19 24 Z" fill="#fdfbf7"/>
    <path d="M32 24 L45 24 C45 34 42 44 32 44 Z" fill="#ece5d8"/>
    <ellipse cx="32" cy="24" rx="13" ry="3.6" fill="#e8e0d2"/>
    <ellipse cx="32" cy="24.4" rx="11" ry="2.9" fill="#4a2c1a"/>
    <ellipse cx="31" cy="24.2" rx="6.5" ry="1.8" fill="#6f452a"/>
    <path d="M26.5 23.6 a5.5 2.4 0 0 1 5.5 .4" fill="none" stroke="#8a5a37" stroke-width="1.2"/></svg>
